<?xml version="1.0" standalone="no"?>
<!DOCTYPE svg PUBLIC "-//W3C//DTD SVG 20010904//EN"
 "http://www.w3.org/TR/2001/REC-SVG-20010904/DTD/svg10.dtd">
<svg version="1.0" xmlns="http://www.w3.org/2000/svg"
 width="987.000000pt" height="987.000000pt" viewBox="0 0 987.000000 987.000000"
 preserveAspectRatio="xMidYMid meet">
<metadata>
Created by potrace 1.11, written by Peter Selinger 2001-2013
</metadata>
<g transform="translate(0.000000,987.000000) scale(0.100000,-0.100000)"
fill="#000000" stroke="none">
<path d="M2820 7429 c-36 -4 -87 -11 -114 -14 -129 -15 -343 -68 -491 -122
-476 -173 -899 -495 -1191 -908 -122 -172 -265 -447 -315 -605 -58 -185 -88
-303 -103 -402 -7 -42 -13 -82 -22 -143 -13 -86 -12 -451 1 -555 19 -148 52
-322 75 -395 35 -108 64 -194 75 -220 7 -16 20 -50 30 -75 9 -25 47 -103 84
-175 237 -458 588 -812 1054 -1064 213 -114 562 -227 797 -256 30 -4 69 -9 85
-11 59 -9 421 -11 490 -4 145 17 172 21 230 31 289 51 653 195 890 351 94 62
230 163 239 176 3 5 -16 38 -42 73 -182 242 -342 549 -443 849 -37 112 -92
319 -103 390 -3 19 -8 46 -11 60 -2 13 -7 42 -10 65 -3 22 -8 51 -10 65 -5 27
-14 124 -21 205 -5 67 -4 400 1 450 2 22 7 69 10 105 4 36 15 116 26 177 84
487 268 920 563 1324 l47 64 -33 28 c-48 41 -215 160 -268 191 -225 131 -551
260 -760 300 -14 2 -45 9 -70 14 -25 6 -74 13 -110 17 -36 4 -74 9 -85 12 -37
9 -429 10 -495 2z"/>
<path d="M6930 7437 c-3 -3 -40 -7 -83 -11 -43 -4 -117 -14 -165 -22 -48 -9
-99 -18 -115 -20 -125 -22 -380 -112 -552 -196 -81 -39 -274 -148 -300 -170
-5 -4 -41 -31 -80 -59 -199 -146 -369 -315 -523 -523 -266 -357 -435 -793
-480 -1241 -14 -137 -6 -554 12 -583 2 -4 6 -29 10 -57 26 -216 134 -543 257
-775 50 -94 200 -326 236 -365 10 -11 31 -38 48 -60 48 -65 263 -276 355 -349
188 -150 432 -292 625 -365 33 -13 69 -27 80 -31 90 -38 337 -103 435 -115 30
-4 57 -8 60 -10 3 -2 43 -7 90 -11 154 -15 488 -9 597 10 10 2 40 7 66 10 157
23 382 90 567 169 14 6 27 11 30 11 21 5 228 117 307 167 387 243 707 599 906
1006 36 75 89 196 93 213 0 3 5 16 11 30 6 14 20 59 33 100 12 41 26 86 31
100 11 31 36 142 45 195 3 22 7 42 9 45 2 3 6 37 10 75 4 39 9 79 12 90 12 50
10 417 -2 520 -29 236 -91 496 -150 630 -8 17 -28 64 -45 105 -158 378 -463
760 -815 1017 -281 205 -654 368 -980 427 -16 3 -41 8 -54 11 -13 2 -49 7 -80
10 -31 4 -67 9 -81 12 -31 6 -414 15 -420 10z"/>
</g>
</svg>
